<svg xmlns="http://www.w3.org/2000/svg" viewBox="0 0 24 24" role="img" aria-label="Apple logo">
  <path fill="#fff" d="M16.53 12.9c-.03-2.7 2.2-4 2.3-4.06-1.25-1.83-3.2-2.08-3.89-2.11-1.66-.17-3.24.98-4.08.98-.84 0-2.14-.95-3.52-.92-1.81.03-3.48 1.05-4.42 2.67-1.88 3.26-.48 8.09 1.36 10.73.9 1.3 1.97 2.76 3.38 2.71 1.36-.05 1.87-.88 3.51-.88 1.64 0 2.1.88 3.54.85 1.46-.03 2.39-1.32 3.28-2.62 1.04-1.51 1.46-2.98 1.49-3.05-.03-.01-2.84-1.09-2.95-4.3ZM13.85 4.98c.74-.9 1.24-2.15 1.1-3.39-1.07.04-2.37.71-3.14 1.61-.69.8-1.29 2.08-1.13 3.3 1.2.09 2.42-.61 3.17-1.52Z"/>
</svg>
