<svg xmlns="http://www.w3.org/2000/svg" viewBox="0 0 24 24" role="img" aria-label="Google Play logo">
  <path fill="#00A0FF" d="M3.41 2.16c-.26.28-.41.7-.41 1.25v17.18c0 .55.15.97.41 1.25l.06.05L13.1 12.1v-.2L3.47 2.11l-.06.05Z"/>
  <path fill="#00F076" d="m16.31 15.37-3.21-3.27v-.2l3.21-3.27.07.04 3.8 2.16c1.09.62 1.09 1.72 0 2.34l-3.8 2.16-.07.04Z"/>
  <path fill="#FFB700" d="m16.38 15.33-3.28-3.33-9.69 9.84c.41.44 1.08.49 1.83.06l11.14-6.57Z"/>
  <path fill="#FF3D00" d="M16.38 8.67 5.24 2.1c-.75-.43-1.42-.38-1.83.06L13.1 12l3.28-3.33Z"/>
</svg>
