<svg xmlns="http://www.w3.org/2000/svg" viewBox="0 0 1024 1024" role="img" aria-label="SHOQ1 logo">
  <path fill="#000000" fill-rule="evenodd" d="M 588 370 L 587 371 L 569 372 L 549 379 L 533 389 L 519 402 L 508 417 L 501 431 L 497 443 L 494 458 L 493 482 L 494 483 L 494 493 L 495 494 L 496 504 L 501 519 L 513 540 L 529 557 L 547 569 L 560 574 L 581 578 L 597 578 L 598 577 L 614 575 L 623 572 L 637 565 L 655 551 L 662 543 L 669 533 L 677 517 L 680 508 L 683 494 L 683 487 L 684 486 L 684 463 L 683 462 L 683 455 L 681 445 L 675 428 L 670 418 L 660 404 L 647 391 L 636 383 L 622 376 L 603 371 L 593 371 L 592 370 L 589 371 Z
  M 288 377 L 278 372 L 262 370 L 261 369 L 244 369 L 243 368 L 208 369 L 207 370 L 196 371 L 180 376 L 164 385 L 153 395 L 143 411 L 140 420 L 139 432 L 138 433 L 140 454 L 147 469 L 158 480 L 178 490 L 204 496 L 216 497 L 240 502 L 246 505 L 251 510 L 252 515 L 251 519 L 246 524 L 240 527 L 228 530 L 198 530 L 197 529 L 177 527 L 166 524 L 150 524 L 141 528 L 137 532 L 132 542 L 132 555 L 135 562 L 141 568 L 154 574 L 168 577 L 175 577 L 176 578 L 207 579 L 208 580 L 209 579 L 237 578 L 263 571 L 278 563 L 292 551 L 300 539 L 303 531 L 306 516 L 306 504 L 304 494 L 296 478 L 285 467 L 269 458 L 247 451 L 203 443 L 196 440 L 192 436 L 193 427 L 201 422 L 208 420 L 216 420 L 217 419 L 239 420 L 240 421 L 248 421 L 249 422 L 254 422 L 261 424 L 271 424 L 272 425 L 279 424 L 286 421 L 294 413 L 297 406 L 297 401 L 298 400 L 296 388 L 293 382 Z
  M 328 374 L 322 381 L 318 392 L 318 552 L 320 560 L 323 566 L 329 572 L 335 575 L 344 577 L 345 576 L 353 576 L 361 572 L 366 567 L 371 557 L 371 508 L 372 503 L 375 500 L 378 499 L 423 499 L 427 501 L 429 504 L 429 553 L 433 565 L 441 573 L 448 576 L 463 576 L 470 573 L 478 565 L 482 555 L 482 391 L 480 384 L 477 379 L 471 373 L 462 369 L 449 369 L 440 373 L 433 380 L 429 392 L 429 445 L 426 449 L 423 450 L 377 450 L 372 446 L 371 443 L 371 404 L 372 402 L 371 401 L 371 389 L 368 381 L 362 374 L 351 369 L 339 369 Z
  M 734 388 L 717 404 L 707 418 L 700 432 L 694 452 L 693 476 L 692 477 L 694 498 L 700 518 L 709 535 L 715 543 L 726 554 L 734 560 L 745 566 L 761 571 L 767 570 L 773 566 L 776 559 L 776 549 L 774 539 L 771 535 L 753 524 L 743 513 L 738 505 L 734 494 L 733 484 L 732 483 L 733 463 L 736 452 L 744 437 L 751 429 L 763 420 L 775 415 L 785 414 L 786 413 L 798 413 L 808 415 L 827 424 L 841 438 L 848 450 L 853 467 L 852 492 L 847 506 L 838 520 L 838 557 L 849 573 L 860 586 L 867 589 L 875 589 L 882 586 L 888 580 L 890 576 L 890 568 L 888 563 L 872 541 L 881 528 L 889 508 L 892 493 L 892 483 L 893 482 L 893 475 L 892 474 L 893 473 L 892 472 L 892 460 L 890 450 L 885 434 L 871 410 L 859 397 L 842 384 L 825 376 L 805 371 L 792 371 L 791 370 L 790 371 L 770 372 L 751 378 Z
  M 582 413 L 595 413 L 607 416 L 617 421 L 626 428 L 636 440 L 642 452 L 646 471 L 646 478 L 645 479 L 646 480 L 645 481 L 644 492 L 641 501 L 635 512 L 626 522 L 615 530 L 603 535 L 593 536 L 592 537 L 584 537 L 570 534 L 554 525 L 544 515 L 538 506 L 533 493 L 531 483 L 531 468 L 532 467 L 533 457 L 542 438 L 558 422 L 572 415 Z
  M 548 485 L 548 490 L 551 495 L 563 506 L 574 511 L 585 512 L 586 513 L 601 511 L 613 506 L 624 497 L 629 488 L 628 484 L 626 482 L 620 481 L 616 484 L 611 491 L 599 498 L 581 499 L 568 493 L 556 481 L 552 481 Z
  M 606 442 L 601 444 L 596 452 L 597 467 L 600 472 L 605 475 L 610 474 L 614 470 L 617 463 L 617 455 L 614 447 L 610 443 Z
  M 565 443 L 560 448 L 558 455 L 558 462 L 561 470 L 565 474 L 570 475 L 574 473 L 578 467 L 579 453 L 574 444 Z"/>
  <path fill="#E53935" fill-rule="evenodd" d="M 811 448 L 800 451 L 787 460 L 764 473 L 756 481 L 754 487 L 754 494 L 756 499 L 760 504 L 764 506 L 771 507 L 788 498 L 789 499 L 789 581 L 792 587 L 796 591 L 802 594 L 812 594 L 818 591 L 823 585 L 825 577 L 825 485 L 824 484 L 825 482 L 824 464 L 825 463 L 822 454 L 818 450 Z"/>
</svg>
